<?xml version="1.0" encoding="iso-8859-1"?>
<!-- Generator: Adobe Illustrator 19.0.0, SVG Export Plug-In . SVG Version: 6.00 Build 0)  -->
<svg version="1.1" id="Capa_1" xmlns="http://www.w3.org/2000/svg" xmlns:xlink="http://www.w3.org/1999/xlink" x="0px" y="0px"
	 viewBox="0 0 512.001 512.001" style="enable-background:new 0 0 512.001 512.001;" xml:space="preserve">
<g>
	<g>
		<g>
			<path d="M221.843,420.255C119.875,415.957,40,332.574,40,230.427c0-104.766,85.234-190,190-190
				c88.342,0,166.346,62.489,185.476,148.583c2.396,10.783,13.076,17.581,23.862,15.186c10.783-2.396,17.582-13.079,15.186-23.862
				c-11.17-50.266-39.456-95.921-79.649-128.553C334.085,18.665,282.634,0.427,230,0.427c-61.436,0-119.193,23.924-162.635,67.365
				C23.924,111.234,0,168.991,0,230.427c0,59.719,22.784,116.314,64.153,159.358c41.249,42.918,96.652,67.933,156.005,70.435
				c0.287,0.012,0.572,0.018,0.857,0.018c10.658,0,19.515-8.409,19.968-19.158C241.449,430.044,232.879,420.72,221.843,420.255z"/>
			<path d="M230,80.574c-11.046,0-20,8.954-20,20v121.569l-64.613,64.613c-7.811,7.81-7.811,20.473,0,28.284
				c3.905,3.905,9.023,5.858,14.142,5.858s10.237-1.953,14.142-5.858l70.471-70.471c3.751-3.75,5.858-8.838,5.858-14.142V100.574
				C250,89.528,241.046,80.574,230,80.574z"/>
			<path d="M470.855,248.773c-20.853-8.511-48.147-13.199-76.854-13.199c-28.707,0-56.001,4.688-76.854,13.199
				c-35.8,14.612-41.146,35.595-41.146,46.801v156c0,11.207,5.346,32.189,41.146,46.801c20.853,8.511,48.147,13.199,76.854,13.199
				c28.707,0,56.001-4.688,76.854-13.199c35.8-14.612,41.146-35.595,41.146-46.801v-156
				C512.001,284.367,506.655,263.385,470.855,248.773z M472.001,450.94c-3.304,6.149-30.193,20.634-78,20.634
				s-74.696-14.484-78-20.634v-32.052c0.385,0.162,0.753,0.326,1.146,0.487c20.853,8.511,48.147,13.199,76.854,13.199
				c6.924,0,13.855-0.274,20.6-0.815c11.01-0.883,19.22-10.525,18.336-21.536c-0.884-11.011-10.512-19.216-21.536-18.336
				c-5.685,0.456-11.539,0.688-17.4,0.688c-47.82,0-74.708-14.49-78-20.637V341.89c0.385,0.162,0.753,0.326,1.146,0.487
				c20.853,8.511,48.147,13.199,76.854,13.199c6.924,0,13.855-0.274,20.6-0.815c11.01-0.883,19.22-10.525,18.336-21.536
				c-0.884-11.011-10.512-19.217-21.536-18.336c-5.685,0.456-11.539,0.688-17.4,0.688c-46.242,0-72.907-13.549-77.594-20.001
				c4.694-6.454,31.36-19.999,77.594-19.999c47.807,0,74.696,14.484,78,20.634V450.94z"/>
		</g>
	</g>
</g>
<g>
</g>
<g>
</g>
<g>
</g>
<g>
</g>
<g>
</g>
<g>
</g>
<g>
</g>
<g>
</g>
<g>
</g>
<g>
</g>
<g>
</g>
<g>
</g>
<g>
</g>
<g>
</g>
<g>
</g>
</svg>
