<svg id="Capa_1" enable-background="new 0 0 512 512" height="512" viewBox="0 0 512 512" width="512" xmlns="http://www.w3.org/2000/svg"><g><path d="m415.904 232.986-40.896 40.896c-23.697-18.662-45.039-40.044-64.772-64.895l40.835-40.835-30.509-30.509v-92.643c0-24.813-20.187-45-45-45h-212.531c-24.813 0-45 20.187-45 45v422c0 24.813 20.187 45 45 45h212.531c24.813 0 45-20.187 45-45v-95.827c14.033 12.037 28.385 23.713 43.083 34.963 10.363 7.932 23.007 12.143 35.869 12.142 3.675 0 7.368-.344 11.031-1.042 16.478-3.144 30.877-13.196 39.507-27.578l43.917-78.606zm-194.919-202.986-10 30h-83.377l-10-30zm-172.954 15c0-8.271 6.729-15 15-15h22.955l20 60h126.623l20-60h22.955c8.271 0 15 6.729 15 15v62.644l-17.557-17.557-78.203 43.684-.403.233c-14.382 8.63-24.435 23.03-27.578 39.507-3.145 16.481.901 33.576 11.1 46.9 34.021 44.447 71.727 85.911 112.641 123.975v62.614c0 8.271-6.729 15-15 15h-212.533c-8.271 0-15-6.729-15-15zm227.531 437h-212.531c-8.271 0-15-6.729-15-15v-17.58c4.695 1.665 9.742 2.58 15 2.58h212.531c5.258 0 10.305-.915 15-2.58v17.58c0 8.271-6.729 15-15 15zm148.658-107.599c-4.308 7.068-11.152 11.813-19.296 13.366-8.217 1.567-16.401-.369-23.043-5.454-67.706-51.824-128.313-112.431-180.137-180.137-5.084-6.643-7.021-14.826-5.454-23.043 1.554-8.144 6.297-14.988 13.366-19.296l58.177-32.498 40.812 40.813-38.133 38.132 7.788 10.405c26.457 35.349 55.627 64.51 89.177 89.149l10.379 7.623 38.049-38.049 40.812 40.812z"/></g></svg>